{"asset":{"version":"2.0","generator":"babylon.js glTF exporter for Autodesk MAYA 2023 v20221031.2"},"scene":0,"scenes":[{"nodes":[0]}],"nodes":[{"mesh":0,"name":"pCylinder102"}],"meshes":[{"primitives":[{"attributes":{"POSITION":1,"TANGENT":2,"NORMAL":3,"TEXCOORD_0":4},"indices":0,"material":0},{"attributes":{"POSITION":6,"TANGENT":7,"NORMAL":8,"TEXCOORD_0":9},"indices":5,"material":1},{"attributes":{"POSITION":11,"TANGENT":12,"NORMAL":13,"TEXCOORD_0":14},"indices":10,"material":2},{"attributes":{"POSITION":16,"TANGENT":17,"NORMAL":18,"TEXCOORD_0":19},"indices":15,"material":3},{"attributes":{"POSITION":21,"TANGENT":22,"NORMAL":23,"TEXCOORD_0":24},"indices":20,"material":4},{"attributes":{"POSITION":26,"TANGENT":27,"NORMAL":28,"TEXCOORD_0":29},"indices":25,"material":5},{"attributes":{"POSITION":31,"TANGENT":32,"NORMAL":33,"TEXCOORD_0":34},"indices":30,"material":6},{"attributes":{"POSITION":36,"TANGENT":37,"NORMAL":38,"TEXCOORD_0":39},"indices":35,"material":7},{"attributes":{"POSITION":41,"TANGENT":42,"NORMAL":43,"TEXCOORD_0":44},"indices":40,"material":8},{"attributes":{"POSITION":46,"TANGENT":47,"NORMAL":48,"TEXCOORD_0":49},"indices":45,"material":9},{"attributes":{"POSITION":51,"TANGENT":52,"NORMAL":53,"TEXCOORD_0":54},"indices":50,"material":10},{"attributes":{"POSITION":56,"TANGENT":57,"NORMAL":58,"TEXCOORD_0":59},"indices":55,"material":11},{"attributes":{"POSITION":61,"TANGENT":62,"NORMAL":63,"TEXCOORD_0":64},"indices":60,"material":12},{"attributes":{"POSITION":66,"TANGENT":67,"NORMAL":68,"TEXCOORD_0":69},"indices":65,"material":13}],"name":"pCylinder102"}],"accessors":[{"bufferView":0,"componentType":5125,"count":5337,"type":"SCALAR","name":"accessorIndices"},{"bufferView":1,"componentType":5126,"count":2035,"max":[0.195881,0.119265646,0.582054734],"min":[-0.19574216,-0.08684473,-0.5751343],"type":"VEC3","name":"accessorPositions"},{"bufferView":2,"componentType":5126,"count":2035,"type":"VEC4","name":"accessorTangents"},{"bufferView":1,"byteOffset":24420,"componentType":5126,"count":2035,"type":"VEC3","name":"accessorNormals"},{"bufferView":3,"componentType":5126,"count":2035,"type":"VEC2","name":"accessorUVs"},{"bufferView":0,"byteOffset":21348,"componentType":5125,"count":40320,"type":"SCALAR","name":"accessorIndices"},{"bufferView":1,"byteOffset":48840,"componentType":5126,"count":12128,"max":[0.16945754,0.120226227,0.451932073],"min":[-0.115527377,-0.084131524,-0.4450116],"type":"VEC3","name":"accessorPositions"},{"bufferView":2,"byteOffset":32560,"componentType":5126,"count":12128,"type":"VEC4","name":"accessorTangents"},{"bufferView":1,"byteOffset":194376,"componentType":5126,"count":12128,"type":"VEC3","name":"accessorNormals"},{"bufferView":3,"byteOffset":16280,"componentType":5126,"count":12128,"type":"VEC2","name":"accessorUVs"},{"bufferView":0,"byteOffset":182628,"componentType":5125,"count":1752,"type":"SCALAR","name":"accessorIndices"},{"bufferView":1,"byteOffset":339912,"componentType":5126,"count":928,"max":[0.120765604,0.119695872,0.4581523],"min":[-0.117883287,0.09313771,-0.451231837],"type":"VEC3","name":"accessorPositions"},{"bufferView":2,"byteOffset":226608,"componentType":5126,"count":928,"type":"VEC4","name":"accessorTangents"},{"bufferView":1,"byteOffset":351048,"componentType":5126,"count":928,"type":"VEC3","name":"accessorNormals"},{"bufferView":3,"byteOffset":113304,"componentType":5126,"count":928,"type":"VEC2","name":"accessorUVs"},{"bufferView":0,"byteOffset":189636,"componentType":5125,"count":32856,"type":"SCALAR","name":"accessorIndices"},{"bufferView":1,"byteOffset":362184,"componentType":5126,"count":7392,"max":[0.1911988,0.09975106,0.0993853956],"min":[-0.198211879,-0.0838994458,-0.07273302],"type":"VEC3","name":"accessorPositions"},{"bufferView":2,"byteOffset":241456,"componentType":5126,"count":7392,"type":"VEC4","name":"accessorTangents"},{"bufferView":1,"byteOffset":450888,"componentType":5126,"count":7392,"type":"VEC3","name":"accessorNormals"},{"bufferView":3,"byteOffset":120728,"componentType":5126,"count":7392,"type":"VEC2","name":"accessorUVs"},{"bufferView":0,"byteOffset":321060,"componentType":5125,"count":1044,"type":"SCALAR","name":"accessorIndices"},{"bufferView":1,"byteOffset":539592,"componentType":5126,"count":669,"max":[0.1679568,0.118927613,0.523779869],"min":[-0.194066256,-0.0303649344,-0.5168595],"type":"VEC3","name":"accessorPositions"},{"bufferView":2,"byteOffset":359728,"componentType":5126,"count":669,"type":"VEC4","name":"accessorTangents"},{"bufferView":1,"byteOffset":547620,"componentType":5126,"count":669,"type":"VEC3","name":"accessorNormals"},{"bufferView":3,"byteOffset":179864,"componentType":5126,"count":669,"type":"VEC2","name":"accessorUVs"},{"bufferView":0,"byteOffset":325236,"componentType":5125,"count":250752,"type":"SCALAR","name":"accessorIndices"},{"bufferView":1,"byteOffset":555648,"componentType":5126,"count":54820,"max":[0.1715979,0.1216705,0.575570643],"min":[-0.172307208,0.09621879,-0.5686502],"type":"VEC3","name":"accessorPositions"},{"bufferView":2,"byteOffset":370432,"componentType":5126,"count":54820,"type":"VEC4","name":"accessorTangents"},{"bufferView":1,"byteOffset":1213488,"componentType":5126,"count":54820,"type":"VEC3","name":"accessorNormals"},{"bufferView":3,"byteOffset":185216,"componentType":5126,"count":54820,"type":"VEC2","name":"accessorUVs"},{"bufferView":0,"byteOffset":1328244,"componentType":5125,"count":6336,"type":"SCALAR","name":"accessorIndices"},{"bufferView":1,"byteOffset":1871328,"componentType":5126,"count":1272,"max":[0.204930469,0.107491344,0.06935579],"min":[-0.199873731,-0.0462540574,-0.0494726822],"type":"VEC3","name":"accessorPositions"},{"bufferView":2,"byteOffset":1247552,"componentType":5126,"count":1272,"type":"VEC4","name":"accessorTangents"},{"bufferView":1,"byteOffset":1886592,"componentType":5126,"count":1272,"type":"VEC3","name":"accessorNormals"},{"bufferView":3,"byteOffset":623776,"componentType":5126,"count":1272,"type":"VEC2","name":"accessorUVs"},{"bufferView":0,"byteOffset":1353588,"componentType":5125,"count":1542,"type":"SCALAR","name":"accessorIndices"},{"bufferView":1,"byteOffset":1901856,"componentType":5126,"count":654,"max":[0.178441346,-0.07643292,0.103040323],"min":[-0.05949391,-0.08759611,-0.07466912],"type":"VEC3","name":"accessorPositions"},{"bufferView":2,"byteOffset":1267904,"componentType":5126,"count":654,"type":"VEC4","name":"accessorTangents"},{"bufferView":1,"byteOffset":1909704,"componentType":5126,"count":654,"type":"VEC3","name":"accessorNormals"},{"bufferView":3,"byteOffset":633952,"componentType":5126,"count":654,"type":"VEC2","name":"accessorUVs"},{"bufferView":0,"byteOffset":1359756,"componentType":5125,"count":105,"type":"SCALAR","name":"accessorIndices"},{"bufferView":1,"byteOffset":1917552,"componentType":5126,"count":75,"max":[0.122489415,0.119265646,0.487883359],"min":[-0.119607083,0.110317178,-0.480962962],"type":"VEC3","name":"accessorPositions"},{"bufferView":2,"byteOffset":1278368,"componentType":5126,"count":75,"type":"VEC4","name":"accessorTangents"},{"bufferView":1,"byteOffset":1918452,"componentType":5126,"count":75,"type":"VEC3","name":"accessorNormals"},{"bufferView":3,"byteOffset":639184,"componentType":5126,"count":75,"type":"VEC2","name":"accessorUVs"},{"bufferView":0,"byteOffset":1360176,"componentType":5125,"count":2592,"type":"SCALAR","name":"accessorIndices"},{"bufferView":1,"byteOffset":1919352,"componentType":5126,"count":561,"max":[0.20321016,0.106866054,0.0547113121],"min":[-0.198897168,-0.0310051665,-0.04115946],"type":"VEC3","name":"accessorPositions"},{"bufferView":2,"byteOffset":1279568,"componentType":5126,"count":561,"type":"VEC4","name":"accessorTangents"},{"bufferView":1,"byteOffset":1926084,"componentType":5126,"count":561,"type":"VEC3","name":"accessorNormals"},{"bufferView":3,"byteOffset":639784,"componentType":5126,"count":561,"type":"VEC2","name":"accessorUVs"},{"bufferView":0,"byteOffset":1370544,"componentType":5125,"count":1008,"type":"SCALAR","name":"accessorIndices"},{"bufferView":1,"byteOffset":1932816,"componentType":5126,"count":504,"max":[0.129770443,0.119265631,0.582054734],"min":[-0.126888126,0.0958879441,-0.5751343],"type":"VEC3","name":"accessorPositions"},{"bufferView":2,"byteOffset":1288544,"componentType":5126,"count":504,"type":"VEC4","name":"accessorTangents"},{"bufferView":1,"byteOffset":1938864,"componentType":5126,"count":504,"type":"VEC3","name":"accessorNormals"},{"bufferView":3,"byteOffset":644272,"componentType":5126,"count":504,"type":"VEC2","name":"accessorUVs"},{"bufferView":0,"byteOffset":1374576,"componentType":5125,"count":504,"type":"SCALAR","name":"accessorIndices"},{"bufferView":1,"byteOffset":1944912,"componentType":5126,"count":538,"max":[0.129770443,0.119265631,0.582054734],"min":[-0.126888126,0.0958879441,-0.5751343],"type":"VEC3","name":"accessorPositions"},{"bufferView":2,"byteOffset":1296608,"componentType":5126,"count":538,"type":"VEC4","name":"accessorTangents"},{"bufferView":1,"byteOffset":1951368,"componentType":5126,"count":538,"type":"VEC3","name":"accessorNormals"},{"bufferView":3,"byteOffset":648304,"componentType":5126,"count":538,"type":"VEC2","name":"accessorUVs"},{"bufferView":0,"byteOffset":1376592,"componentType":5125,"count":72,"type":"SCALAR","name":"accessorIndices"},{"bufferView":1,"byteOffset":1957824,"componentType":5126,"count":48,"max":[-0.192120075,-0.0141234081,0.5825969],"min":[-0.194024429,-0.0351339951,-0.5478368],"type":"VEC3","name":"accessorPositions"},{"bufferView":2,"byteOffset":1305216,"componentType":5126,"count":48,"type":"VEC4","name":"accessorTangents"},{"bufferView":1,"byteOffset":1958400,"componentType":5126,"count":48,"type":"VEC3","name":"accessorNormals"},{"bufferView":3,"byteOffset":652608,"componentType":5126,"count":48,"type":"VEC2","name":"accessorUVs"},{"bufferView":0,"byteOffset":1376880,"componentType":5125,"count":2208,"type":"SCALAR","name":"accessorIndices"},{"bufferView":1,"byteOffset":1958976,"componentType":5126,"count":786,"max":[0.207696617,0.108572073,0.06902069],"min":[-0.201444015,-0.0459189564,-0.049282454],"type":"VEC3","name":"accessorPositions"},{"bufferView":2,"byteOffset":1305984,"componentType":5126,"count":786,"type":"VEC4","name":"accessorTangents"},{"bufferView":1,"byteOffset":1968408,"componentType":5126,"count":786,"type":"VEC3","name":"accessorNormals"},{"bufferView":3,"byteOffset":652992,"componentType":5126,"count":786,"type":"VEC2","name":"accessorUVs"}],"bufferViews":[{"buffer":0,"byteLength":1385712,"name":"bufferViewScalar"},{"buffer":0,"byteOffset":1385712,"byteLength":1977840,"byteStride":12,"name":"bufferViewFloatVec3"},{"buffer":0,"byteOffset":3363552,"byteLength":1318560,"byteStride":16,"name":"bufferViewFloatVec4"},{"buffer":0,"byteOffset":4682112,"byteLength":659280,"byteStride":8,"name":"bufferViewFloatVec2"}],"buffers":[{"uri":"Satelite.bin","byteLength":5341392}],"materials":[{"pbrMetallicRoughness":{"baseColorFactor":[0.5297619,0.5297619,0.5297619,1.0],"metallicFactor":0.0,"roughnessFactor":0.450053632},"name":"lambert1"},{"pbrMetallicRoughness":{"baseColorFactor":[0.392857134,0.392857134,0.392857134,1.0],"metallicFactor":0.0,"roughnessFactor":0.4},"name":"Conector"},{"pbrMetallicRoughness":{"metallicFactor":0.0,"roughnessFactor":0.4},"name":"Circuitos"},{"pbrMetallicRoughness":{"baseColorFactor":[0.3392857,0.3392857,0.3392857,1.0],"metallicFactor":0.0,"roughnessFactor":0.4},"name":"Tornillos"},{"pbrMetallicRoughness":{"baseColorFactor":[0.0,0.0,0.0,1.0],"metallicFactor":0.0,"roughnessFactor":0.4},"name":"Bloques_negros"},{"pbrMetallicRoughness":{"baseColorFactor":[0.619047642,0.619047642,0.619047642,1.0],"metallicFactor":0.0,"roughnessFactor":0.4},"name":"Conectores_paneles"},{"pbrMetallicRoughness":{"baseColorFactor":[0.07692308,0.07692308,0.07692308,1.0],"metallicFactor":0.0,"roughnessFactor":0.4},"name":"Ciruclos_negros"},{"pbrMetallicRoughness":{"baseColorFactor":[0.7380952,0.7380952,0.7380952,1.0],"metallicFactor":0.0,"roughnessFactor":0.4},"name":"Modulos"},{"pbrMetallicRoughness":{"baseColorFactor":[0.7202381,0.7202381,0.7202381,1.0],"metallicFactor":0.0,"roughnessFactor":0.4},"name":"Color"},{"pbrMetallicRoughness":{"baseColorFactor":[0.0,0.0,0.0,1.0],"metallicFactor":0.0,"roughnessFactor":0.4},"name":"Lente"},{"pbrMetallicRoughness":{"baseColorFactor":[0.0,0.0,0.0,1.0],"metallicFactor":0.0,"roughnessFactor":0.615384638},"name":"Panel_solar"},{"pbrMetallicRoughness":{"baseColorFactor":[0.387,0.317474723,0.186147,1.0],"metallicFactor":0.0,"roughnessFactor":0.4},"name":"Linea_panel_solar"},{"pbrMetallicRoughness":{"baseColorFactor":[1.0,0.8876159,0.0260000229,1.0],"metallicFactor":0.0,"roughnessFactor":0.4},"name":"Dorado"},{"pbrMetallicRoughness":{"baseColorFactor":[0.0,0.0,0.0,1.0],"metallicFactor":0.0,"roughnessFactor":0.4},"name":"Glass"}]}